HIERARCHY
ROOT Hips
{
	OFFSET -14.64140 90.27770 -84.91600
	CHANNELS 6 Xposition Yposition Zposition Zrotation Xrotation Yrotation
	JOINT Spine
	{
		OFFSET 0.00000 13.20850 -1.60436
		CHANNELS 3 Zrotation Xrotation Yrotation
		JOINT Spine1
		{
			OFFSET 0.00000 8.61716 0.00000
			CHANNELS 3 Zrotation Xrotation Yrotation
			JOINT Spine2
			{
				OFFSET 0.00000 8.61717 0.00000
				CHANNELS 3 Zrotation Xrotation Yrotation
				JOINT Spine3
				{
					OFFSET 0.00000 8.61717 0.00000
					CHANNELS 3 Zrotation Xrotation Yrotation
					JOINT Neck
					{
						OFFSET 0.00000 11.07920 1.10792
						CHANNELS 3 Zrotation Xrotation Yrotation
						JOINT Neck1
						{
							OFFSET 0.00000 7.08032 0.00000
							CHANNELS 3 Zrotation Xrotation Yrotation
							JOINT Head
							{
								OFFSET 0.00000 7.08031 0.00000
								CHANNELS 3 Zrotation Xrotation Yrotation
								End site
								{
									OFFSET 0.00000 0.00000 0.00000
								}
							}
						}
					}
					JOINT RightShoulder
					{
						OFFSET -0.01000 7.91373 5.19711
						CHANNELS 3 Zrotation Xrotation Yrotation
						JOINT RightArm
						{
							OFFSET -18.41580 0.00000 0.00000
							CHANNELS 3 Zrotation Xrotation Yrotation
							JOINT RightForeArm
							{
								OFFSET -29.11090 0.00000 0.00000
								CHANNELS 3 Zrotation Xrotation Yrotation
								JOINT RightHand
								{
									OFFSET -24.65040 0.00000 0.00000
									CHANNELS 3 Zrotation Xrotation Yrotation
									JOINT RightHandThumb1
									{
										OFFSET -5.35114 -0.85590 3.97906
										CHANNELS 3 Zrotation Xrotation Yrotation
										JOINT RightHandThumb2
										{
											OFFSET -4.52789 0.00000 0.00000
											CHANNELS 3 Zrotation Xrotation Yrotation
											JOINT RightHandThumb3
											{
												OFFSET -2.46976 0.00000 0.00000
												CHANNELS 3 Zrotation Xrotation Yrotation
												End site
												{
													OFFSET 0.00000 0.00000 0.00000
												}
											}
										}
									}
									JOINT RightHandIndex1
									{
										OFFSET -14.26970 0.00000 2.88139
										CHANNELS 3 Zrotation Xrotation Yrotation
										JOINT RightHandIndex2
										{
											OFFSET -5.48836 0.00000 0.00000
											CHANNELS 3 Zrotation Xrotation Yrotation
											JOINT RightHandIndex3
											{
												OFFSET -3.01859 0.00000 0.00000
												CHANNELS 3 Zrotation Xrotation Yrotation
												End site
												{
													OFFSET 0.00000 0.00000 0.00000
												}
											}
										}
									}
									JOINT RightHandMiddle1
									{
										OFFSET -14.26970 0.00000 -0.09147
										CHANNELS 3 Zrotation Xrotation Yrotation
										JOINT RightHandMiddle2
										{
											OFFSET -6.17441 0.00000 0.00000
											CHANNELS 3 Zrotation Xrotation Yrotation
											JOINT RightHandMiddle3
											{
												OFFSET -3.56743 0.00000 0.00000
												CHANNELS 3 Zrotation Xrotation Yrotation
												End site
												{
													OFFSET 0.00000 0.00000 0.00000
												}
											}
										}
									}
									JOINT RightHandRing1
									{
										OFFSET -12.69180 0.00000 -3.06433
										CHANNELS 3 Zrotation Xrotation Yrotation
										JOINT RightHandRing2
										{
											OFFSET -5.62556 0.00000 0.00000
											CHANNELS 3 Zrotation Xrotation Yrotation
											JOINT RightHandRing3
											{
												OFFSET -3.56744 0.00000 0.00000
												CHANNELS 3 Zrotation Xrotation Yrotation
												End site
												{
													OFFSET 0.00000 0.00000 0.00000
												}
											}
										}
									}
									JOINT RightHandPinky1
									{
										OFFSET -11.11390 0.00000 -6.03719
										CHANNELS 3 Zrotation Xrotation Yrotation
										JOINT RightHandPinky2
										{
											OFFSET -4.52789 0.00000 0.00000
											CHANNELS 3 Zrotation Xrotation Yrotation
											JOINT RightHandPinky3
											{
												OFFSET -2.46976 0.00000 0.00000
												CHANNELS 3 Zrotation Xrotation Yrotation
												End site
												{
													OFFSET 0.00000 0.00000 0.00000
												}
											}
										}
									}
								}
							}
						}
					}
					JOINT LeftShoulder
					{
						OFFSET 0.01000 7.91373 5.19711
						CHANNELS 3 Zrotation Xrotation Yrotation
						JOINT LeftArm
						{
							OFFSET 18.41580 0.00000 0.00000
							CHANNELS 3 Zrotation Xrotation Yrotation
							JOINT LeftForeArm
							{
								OFFSET 29.11090 0.00000 0.00000
								CHANNELS 3 Zrotation Xrotation Yrotation
								JOINT LeftHand
								{
									OFFSET 24.65040 0.00000 0.00000
									CHANNELS 3 Zrotation Xrotation Yrotation
									JOINT LeftHandThumb1
									{
										OFFSET 5.35114 -0.85590 3.97906
										CHANNELS 3 Zrotation Xrotation Yrotation
										JOINT LeftHandThumb2
										{
											OFFSET 4.52789 0.00000 0.00000
											CHANNELS 3 Zrotation Xrotation Yrotation
											JOINT LeftHandThumb3
											{
												OFFSET 2.46977 0.00000 0.00000
												CHANNELS 3 Zrotation Xrotation Yrotation
												End site
												{
													OFFSET 0.00000 0.00000 0.00000
												}
											}
										}
									}
									JOINT LeftHandIndex1
									{
										OFFSET 14.26970 0.00000 2.88139
										CHANNELS 3 Zrotation Xrotation Yrotation
										JOINT LeftHandIndex2
										{
											OFFSET 5.48836 0.00000 0.00000
											CHANNELS 3 Zrotation Xrotation Yrotation
											JOINT LeftHandIndex3
											{
												OFFSET 3.01859 0.00000 0.00000
												CHANNELS 3 Zrotation Xrotation Yrotation
												End site
												{
													OFFSET 0.00000 0.00000 0.00000
												}
											}
										}
									}
									JOINT LeftHandMiddle1
									{
										OFFSET 14.26970 0.00000 -0.09147
										CHANNELS 3 Zrotation Xrotation Yrotation
										JOINT LeftHandMiddle2
										{
											OFFSET 6.17440 0.00000 0.00000
											CHANNELS 3 Zrotation Xrotation Yrotation
											JOINT LeftHandMiddle3
											{
												OFFSET 3.56744 0.00000 0.00000
												CHANNELS 3 Zrotation Xrotation Yrotation
												End site
												{
													OFFSET 0.00000 0.00000 0.00000
												}
											}
										}
									}
									JOINT LeftHandRing1
									{
										OFFSET 12.69180 0.00000 -3.06433
										CHANNELS 3 Zrotation Xrotation Yrotation
										JOINT LeftHandRing2
										{
											OFFSET 5.62556 0.00000 0.00000
											CHANNELS 3 Zrotation Xrotation Yrotation
											JOINT LeftHandRing3
											{
												OFFSET 3.56744 0.00000 0.00000
												CHANNELS 3 Zrotation Xrotation Yrotation
												End site
												{
													OFFSET 0.00000 0.00000 0.00000
												}
											}
										}
									}
									JOINT LeftHandPinky1
									{
										OFFSET 11.11390 0.00000 -6.03719
										CHANNELS 3 Zrotation Xrotation Yrotation
										JOINT LeftHandPinky2
										{
											OFFSET 4.52789 0.00000 0.00000
											CHANNELS 3 Zrotation Xrotation Yrotation
											JOINT LeftHandPinky3
											{
												OFFSET 2.46976 0.00000 0.00000
												CHANNELS 3 Zrotation Xrotation Yrotation
												End site
												{
													OFFSET 0.00000 0.00000 0.00000
												}
											}
										}
									}
								}
							}
						}
					}
					JOINT pCube4
					{
						OFFSET 0.00000 10.91090 1.10792
						CHANNELS 3 Zrotation Xrotation Yrotation
						End site
						{
							OFFSET 0.00000 0.00000 0.00000
						}
					}
				}
			}
		}
	}
	JOINT RightUpLeg
	{
		OFFSET -9.98441 0.00000 0.00000
		CHANNELS 3 Zrotation Xrotation Yrotation
		JOINT RightLeg
		{
			OFFSET 0.00000 -42.11790 0.00000
			CHANNELS 3 Zrotation Xrotation Yrotation
			JOINT RightFoot
			{
				OFFSET 0.00000 -45.00020 -0.00001
				CHANNELS 3 Zrotation Xrotation Yrotation
				JOINT RightForeFoot
				{
					OFFSET 0.00000 -3.74820 0.00000
					CHANNELS 3 Zrotation Xrotation Yrotation
					JOINT RightToeBase
					{
						OFFSET 0.00000 0.06325 14.43120
						CHANNELS 3 Zrotation Xrotation Yrotation
						End site
						{
							OFFSET 0.00000 0.00000 0.00000
						}
					}
				}
			}
		}
	}
	JOINT LeftUpLeg
	{
		OFFSET 9.98441 0.00000 0.00000
		CHANNELS 3 Zrotation Xrotation Yrotation
		JOINT LeftLeg
		{
			OFFSET 0.00000 -42.11800 0.00000
			CHANNELS 3 Zrotation Xrotation Yrotation
			JOINT LeftFoot
			{
				OFFSET 0.00000 -45.00070 0.00000
				CHANNELS 3 Zrotation Xrotation Yrotation
				JOINT LeftForeFoot
				{
					OFFSET 0.00000 -3.74824 0.00000
					CHANNELS 3 Zrotation Xrotation Yrotation
					JOINT LeftToeBase
					{
						OFFSET 0.00000 0.06325 14.43110
						CHANNELS 3 Zrotation Xrotation Yrotation
						End site
						{
							OFFSET 0.00000 0.00000 0.00000
						}
					}
				}
			}
		}
	}
}
MOTION
Frames: 4
Frame Time: 0.050000
-0.04656356242610046 -0.04702283814594066 -0.04407107162659353 0.03587555825616078 -0.007919403183883287 -0.025076259035643034 -4.621447556590957 7.984298729515946 -0.5616407272407714 -0.7256648020438897 2.937741399074773 0.4133188492861903 -1.0428727402473374 0.25547709438988503 -1.29574753809571 -0.6480000275882302 0.2531836631856461 -1.0219565136569049 -0.10326229507878527 7.395995410411466 0.09731845775222829 -0.08605099354888912 -1.3520505474363524 -3.159000551353281 -0.06098740967891172 -15.3507510889793 -0.19884630947811419 4.1550666640426135 -0.11500641132651697 -9.84879929422473 58.682765430740666 -12.8357922249551 25.734499084056495 29.340494712296845 9.227908858453063 101.43495106244258 24.860334496390973 -0.07304661628130461 -10.762511607027362 4.556392609470149 -0.0867001542385655 -1.5509492687506858 0.0026124104064701825 -0.034403595254820875 -56.27073710213372 0.035787822145478376 0.027626120171860166 -56.20849808153091 -38.75009838943285 -0.016960589256209465 -0.004341498283656772 0.023975990499611393 -0.043207775252412095 -0.030447088600801996 0.04835126804650279 0.020062390401593955 -0.04298418704861665 -36.67194955138403 0.0266145941732608 -0.02161346632336232 -0.01355737143954062 -0.03713746555357886 -0.02626400068617066 -0.04986532564812323 0.03206401292437087 -0.005695192378001977 -19.746918168257796 0.007679266134752877 -0.048282472583588344 -0.015541972253184743 0.0369390031264692 0.02424064890232422 -0.03883324923397283 0.019165212675594585 0.04488845267045346 24.005095114530995 0.03656303040184728 0.03026016305548114 28.879611154793604 0.02614310268041452 0.029005095233937687 28.850870658921476 0.043668553777757795 -0.038755598632762664 -3.534147714647247 -0.11187690246028975 8.56923815216409 -60.63456249912146 18.744045643613614 -20.58837429158863 -44.70441674314804 9.638353736123948 -100.26590803953724 -12.66912981763585 2.887557930956166 -1.7521593278781624 -0.4888820924942143 0.07787643950609659 -8.091139104511306 -0.044421956981489534 0.03299621404505905 44.59416472724992 0.009738211604611689 -0.022134260421505604 44.56982203252815 12.46014598000351 0.04401197411397563 0.03207060044895525 0.028536283823421944 0.026600094762388764 -0.047953473775145375 0.00266267521939728 0.029730120245250936 0.014438055257563594 11.114286423280916 -0.018225651320513396 0.00852541744013916 0.04774685376298792 -0.026193344294112776 -0.022986832181239716 -0.02526341252459638 0.021306267449460688 -0.010507473494532191 4.767816151861069 0.01686650219541049 0.042727516137749035 -0.04382088217483092 -0.03887893000596442 -0.03528745784551552 -0.03178347317606095 -0.04531165565032484 -0.007797065423870735 -5.648933385500518 -0.03370251926005768 -0.03921003803570833 -6.727223597007996 -0.023814171307053933 0.02524871315185502 -6.746213621037062 0.03756736597278281 -0.031951735488237716 -0.0427936246219384 0.0042422069352053855 0.021255143542819318 7.9985405141264545 3.542624030503908 -19.194622277110582 0.031960990679395895 10.351721444615437 -0.022601817972300247 -5.636210413832435 -15.691010377414083 3.209384412067453 -0.004012511338939183 0.0007008593034912303 -0.041404473596512205 0.02378901597283136 4.651510037964364 0.03768946931860418 12.444260112211184 -8.227601001919727 6.905062749491483 0.031598631752605 46.38188861272656 0.0049487925263441085 -4.347388838102815 -14.715199930082253 -3.8056022761773396 -0.02273993479540782 -0.022096462807058754 0.03453099202032488 0.044908034531747694 -10.784374107796845 -0.024602029849058505 
0.017014407419106262 -0.01859040830756253 -0.026757857620830963 0.049659441558511215 0.01807212099482984 -0.03933291375135071 -4.5464263679348145 7.915665117641497 -0.5140156213132269 -0.7408608933590752 2.9664125254450915 0.37095871097070227 -0.9921205725886184 0.2253154234087046 -1.4635772524571848 -0.5473382846692922 0.25770000962967005 -1.0849923738321634 -0.008298367779981244 7.563867628163599 -0.10011461712492367 -0.0796899371209417 -1.2292560039403388 -3.5168357182578043 -0.06390531434329977 -15.291589160918187 -0.2009338933317163 3.90326159875857 -0.08240071954198987 -9.774955059669917 56.41962299689964 -13.730158609549317 28.138332374525344 29.803760295327606 9.7423670041792 100.6808209635903 25.18039054564996 -0.017343888785608524 -11.113411622750974 4.485156574057052 -0.13843668803188272 -1.6196958776843018 0.04006979560515885 0.004548175334318207 -56.19245426680483 0.0377857957062979 0.04224852511143185 -56.28370713135078 -38.81354186411108 -0.016667930784908143 0.027760803743995387 -0.007622864382955409 -0.038146772952887494 -0.0074809689019274175 -0.03852296360407726 -0.03901641267491834 0.019795241036382513 -36.70196111874664 0.026132949638739657 -0.032131472182861255 -0.00730064331215096 -0.006822912855954092 -0.01896945544010898 -0.01629367458007912 -0.0301548690286496 0.043300802002786506 -19.74993565731192 -0.02681510276166787 0.01491491172748368 0.02646413737227639 0.03809762032297287 -0.00597424055307037 0.0030688546782390155 0.029804584962120687 0.02050473297210196 24.01207525062499 -0.018493411734244486 0.01981768665341607 28.898005803185555 0.0010039303810691505 0.036412777025753656 28.890134887497425 -0.01572460721633225 -0.022048446776222974 -3.3235584361048987 -0.11319873080807111 8.294585131332289 -58.62778217328615 19.93836837340845 -22.95612540838342 -41.856326111457975 9.206712740563486 -100.112778849891 -13.14571126876372 2.573749475426576 -1.797463278441017 -0.4648030591518864 0.11557862999349172 -8.156421308411415 -0.014536655700550228 0.01497101536318453 44.57534333718589 -0.01866985149886682 0.002185872824153478 44.53309914329921 12.478222033607057 0.011798879701595152 0.03089420106496383 0.015954495428360284 0.036382961038543195 -0.025617955347248138 0.03318369482311995 0.022471282996473444 0.026921098335814155 11.126692605472163 0.02568808967504836 0.04746062752963776 -0.0478652757059362 0.03566806249268726 -0.00011840108535324397 0.01008557616083745 -0.031580632036766254 0.007472985007406894 4.756789877322219 0.04632978495118036 0.02436416142307356 -0.04773789285763058 -0.004173322808914772 0.016125713198886293 0.042322418621226626 0.04979185386249897 0.0021309524169588973 -5.612504081371441 -0.003359627832944637 -0.02376998333205038 -6.690751150928764 -0.015337809318187862 -0.02468747217172951 -6.721047403949065 -0.01616144753869049 0.02716689962517527 -0.0217628519770082 0.02259216319958511 0.04607761026869401 8.050054500356243 3.5320161863245088 -19.182536009349192 -0.0311243500746321 10.380121751598796 -0.018788280009926193 -5.624242156003285 -15.637172701818436 3.155792346058567 0.011732619294636952 0.023040367456923987 0.00298396855557388 0.03067037728835859 4.715305541748333 -0.010878963621624348 12.503784808775267 -8.262610154255855 6.8697628617197495 -0.030886636637240724 46.42651002313959 0.01747073988705471 -4.344553086320189 -14.787452453857792 -3.842219760404643 0.021399427633843754 0.03075756120452072 0.026938290582119773 0.025567806441838866 -10.7254339421802 0.025692452983392972 
0.022038128391650775 -0.0235368743882865 0.015822258228170342 -0.010093885169670629 0.002279451820178602 0.009372539188668783 -4.322361629353221 7.846097825328191 -0.5197885425549648 -0.7468791296000747 2.9085154456676374 0.41898130255310656 -1.033407161888928 0.16792837422400206 -1.6916345513703888 -0.5148190990351283 0.23887708363592278 -1.121289081747198 0.05489449241932984 7.705206707206784 -0.30128999695633363 -0.07683693306963119 -1.2042776414871523 -3.693274529024575 -0.008710360298557644 -15.145298769560338 -0.20227652117310654 3.502726667155574 -0.010760502539559675 -9.67569303598247 54.378004385001475 -14.588082523701475 30.43815149252675 30.323791806689627 10.206646891159046 99.34879018448976 25.558167454655614 -0.05562383047666199 -11.455301916045235 4.537979915752143 -0.11558007971741055 -1.6160940312944474 -0.030489014922359118 0.04350209933623796 -56.253071684832996 0.019591155034705036 0.023870622757373394 -56.27189889054972 -38.75345327340085 -0.040697000544898644 0.02060629643817545 0.010084065949940896 0.028530654739492494 0.026640790464207705 -0.03859163136634397 -0.007539633456514045 -0.046090483613493195 -36.69784754265673 -0.027349431194610696 0.04689032311251176 0.03060818551752978 -0.021485492588291334 -0.048399391177775475 0.03377859205863792 0.018700640459212978 0.019051985875177858 -19.761172103253504 -0.026724083100619713 -0.049804065403508534 -0.006472247735583841 -0.001652402165914498 -0.04368912427559663 0.011065839315242057 -0.018424010293125855 -0.008850610287831365 24.063419058665733 -0.004734882341395186 -0.033988418258650115 28.87266723270431 -0.00909085088314574 0.030362823684708152 28.83793281697269 -0.023251741151019373 0.02861918409521159 -3.002046617291614 -0.02448284359513618 7.98997372286508 -56.44677061545288 20.9808814345639 -25.66920294806046 -37.35416209401266 8.185274498977398 -99.14582119972869 -13.993716580048378 2.0551497709587383 -1.8262469064873161 -0.4434459790427325 0.09660845289799448 -8.143347275238222 -0.029951261764682848 -0.013540931423900393 44.58414390588483 0.035806992077655656 -0.04633391990230533 44.53263779742925 12.417733640012546 -0.0054306248833008944 -0.046199596000534124 0.023235883946214307 -0.003714535312161032 -0.03457025134341917 -0.001344431696900035 -0.018842494285044427 0.002341283387820644 11.101946177683455 -0.04164321973324525 0.024296037969682827 0.04971007735267319 -0.004462071365795474 0.012130414710289946 -0.007414678715551026 0.04927436600462391 -0.001627486636638894 4.79744051268803 -0.02990005971507819 0.038323602538782975 -0.004818709012724508 -0.023158377155595624 -0.045372868770671246 0.012871956944462321 -0.0017894648784330545 -0.00701601660239745 -5.613412551488891 -0.001601755894209094 0.014716849754537681 -6.703180002483213 -0.03154585899063546 0.02133234068130665 -6.693536361679683 -0.015739158657033972 -0.04164616304939455 -0.02782635989614672 0.02120132818658913 -0.014930047297526597 8.069232346934397 3.488962319733319 -19.267314059240043 -0.02643627631634734 10.364739132093009 0.037964148473794625 -5.629678303134706 -15.621042532310943 3.146922947066416 0.008148908326535791 -0.047830485211225446 -0.019738204775496496 0.015660310771002064 4.678788818881194 0.027235160919674123 12.424539028603823 -8.25910559871831 6.9278263286883295 0.0031580763776346155 46.3804785323169 -0.041771479152379956 -4.305053771670276 -14.772188058768949 -3.853489828706921 0.03306278179798193 -0.00044114838070174003 0.01969123906174867 0.039238170384377526 -10.757159245153552 0.01999193962210835 
0.03403708820212767 -0.00027628365318711523 0.009674025651955548 0.004380613408262718 0.03308063875542423 0.012406510655682077 -4.243973470160406 7.686359099834466 -0.5425649922223326 -0.6520532383997 2.8992062375726078 0.3502576746807545 -1.0061430016132151 0.16498683495127583 -1.8703507393983465 -0.4436407266612141 0.22168051132740885 -1.1156972471302564 0.08566002565871289 7.8000154862689115 -0.49061713631927956 -0.11280344099261824 -1.1516113455626646 -3.879225224724427 0.001278786639387755 -15.077112132405146 -0.24660602788217587 3.281238988892924 0.04253747451631315 -9.619636999139122 53.197477241259556 -15.065181682610271 32.33193251707123 30.446458276689295 10.52560663314635 97.31982343138392 25.936430753958597 -0.022904163892717554 -11.722286171122752 4.54035271245268 -0.10941028842173774 -1.6062298650564952 -0.025715387226116847 -0.011131188581516379 -56.231760540218744 -0.037059716782496796 0.013447437950020761 -56.19564568379979 -38.74501927004542 -0.02122995395294709 -0.03782827371308051 0.04729860831696044 -0.04643043276405357 -0.02174615725389611 -0.03058822562862124 0.0027490791570504046 0.03135765561566738 -36.69917288183733 -0.04011378542900304 -0.019651960368439053 -0.0060627884664449586 -0.0026548967509845813 -0.008042869512832423 0.009482034169969742 0.016694504476275615 0.03621472732036054 -19.711152281934613 -0.02285943631942186 0.006727281929261711 -0.0323446227407778 -0.007484198133086585 0.019190869505286864 0.016611342650557855 -0.03259226194669162 -0.020766546100703175 24.041969312632474 0.01117311318882701 -0.03293067554150142 28.846160821787958 -0.049339211838831186 -0.04689219422875341 28.85656737482893 0.03892157286224809 0.018139595801206873 -2.6719780411772884 0.06249381075972357 7.767475545678329 -54.63297600702761 21.643582973792185 -28.186794829109704 -33.11272451913476 7.1447620858583205 -97.824167879656 -14.856005256306197 1.662249765589127 -1.626061528753529 -0.4347837192994727 0.04368430598030032 -8.088080907590886 -0.02989879800127067 0.024299990161777644 44.553298091591486 -2.5831458747259442e-05 -0.035990675419908136 44.52430645360399 12.477405778078442 -0.0017014499804086744 0.036238276108435816 -0.029803915626678664 0.02380106733114775 -0.047588707830354654 -0.04461618612987956 -0.023231162497498035 -0.004724237050065282 11.10362811465434 -0.02872815555332997 0.040933323380188985 0.00416360348273537 0.009173238060580957 0.01588551624218173 0.030748426305578003 0.019104823535296432 -0.01972019632377624 4.779133311391797 0.009529692752694812 -0.01732812318804895 0.02864128911405788 0.0016493554227123646 -0.005915457544568298 -6.291094456821524e-05 0.03409124165459944 -0.00037112606816583495 -5.551957518448413 -0.026491005552438024 0.04721317342163598 -6.705095885987549 0.01075379230422965 0.024225868524980217 -6.720348800389511 0.006571500452157538 -0.01028470043499848 -0.028789639730024907 -0.028209567465848157 0.033341098250245296 8.01960861909396 3.4821104242041967 -19.18917829793551 -0.006134874385526703 10.437413255511244 0.018067734916206727 -5.606541349916232 -15.674107195376518 3.161535281626305 -0.016488583479255216 0.000703515000669386 -0.02277653838992017 0.04389441656353183 4.715355521201004 -0.020439405874608203 12.470844780491896 -8.205473943322525 6.89242877870728 0.0433798647125349 46.406812373479305 -0.02731789443406933 -4.324680190693682 -14.716987191322861 -3.855042659238096 0.04613588510904924 -0.04590699247623995 0.02162594658838593 -0.03561247964629678 -10.776724904078861 -0.016357395407187125 
